<?xml version="1.0" standalone="no"?>
<!DOCTYPE svg PUBLIC "-//W3C//DTD SVG 20010904//EN"
 "http://www.w3.org/TR/2001/REC-SVG-20010904/DTD/svg10.dtd">
<svg version="1.0" xmlns="http://www.w3.org/2000/svg"
 width="512.000000pt" height="512.000000pt" viewBox="0 0 512.000000 512.000000"
 preserveAspectRatio="xMidYMid meet">
<metadata>
Created by potrace 1.11, written by Peter Selinger 2001-2013
</metadata>
<g transform="translate(0.000000,512.000000) scale(0.100000,-0.100000)"
fill="#000000" stroke="none">
<path d="M1100 2560 l0 -1460 315 0 315 0 2 943 3 942 404 -613 c222 -337 408
-611 414 -609 6 2 194 281 417 620 l405 616 3 -950 2 -949 320 0 320 0 0 1460
0 1460 -347 0 -348 0 -380 -615 c-209 -338 -382 -614 -385 -614 -3 -1 -176
276 -385 614 l-380 614 -347 1 -348 0 0 -1460z"/>
</g>
</svg>
